<?xml version="1.0" encoding="UTF-8"?>
<svg version="1.1" xmlns="http://www.w3.org/2000/svg" width="541" height="537">
<path d="M0 0 C1.5057404 -0.00258659 3.01148011 -0.00560056 4.51721889 -0.0090034 C8.64298226 -0.01704274 12.7687282 -0.01886126 16.89449847 -0.01960087 C21.34947524 -0.02145688 25.80444309 -0.02900715 30.25941467 -0.03573608 C39.99764246 -0.04930006 49.73586612 -0.05534165 59.47410178 -0.05974674 C65.56228265 -0.06251352 71.65046194 -0.06675176 77.73864174 -0.07125092 C94.61512877 -0.08344309 111.49161455 -0.09374118 128.36810589 -0.09712601 C129.44765545 -0.09734557 130.527205 -0.09756514 131.63946818 -0.09779136 C132.72152465 -0.09800964 133.80358111 -0.09822791 134.91842717 -0.09845281 C137.11088606 -0.09889626 139.30334495 -0.09934283 141.49580383 -0.09979248 C142.58332692 -0.10001391 143.67085001 -0.10023534 144.79132835 -0.10046348 C162.38823687 -0.10440616 179.98510385 -0.12184422 197.58199634 -0.145152 C215.67498121 -0.16892207 233.76794528 -0.18133049 251.860946 -0.18249393 C262.00859484 -0.18340773 272.15618961 -0.18908508 282.30382347 -0.20731354 C290.95037759 -0.22279132 299.59686093 -0.2277902 308.24342629 -0.21957543 C312.64704126 -0.21569537 317.05051405 -0.21646733 321.4541111 -0.23063278 C352.88187617 -0.32577677 387.01894434 -0.41613427 411.11763 23.00762939 C412.1714386 24.06337158 412.1714386 24.06337158 413.24653625 25.14044189 C414.1611261 25.94868408 414.1611261 25.94868408 415.0941925 26.77325439 C433.51013824 43.46925987 438.88424034 69.42087621 440.24653625 93.14044189 C440.58719823 103.61704798 440.53423922 114.1029506 440.52264464 124.58391798 C440.52015106 128.81653949 440.52922386 133.04914002 440.53668213 137.28175354 C440.54935925 145.54967017 440.55123158 153.81755421 440.54888187 162.08547892 C440.54709054 168.81441873 440.54886569 175.54334873 440.55310631 182.27228737 C440.5537015 183.23416014 440.55429669 184.19603292 440.55490991 185.18705336 C440.55612181 187.14183666 440.55733594 189.09661996 440.55855229 191.05140326 C440.56940108 209.33820559 440.56727808 227.62498943 440.56116744 245.91179279 C440.55600164 262.59096595 440.56724961 279.27008065 440.58626566 295.94924226 C440.60570214 313.13067371 440.61388985 330.31207758 440.61014241 347.49352008 C440.60823903 357.11739548 440.610633 366.74122116 440.62485695 376.36508751 C440.63684616 384.55894686 440.63809209 392.7527259 440.62606678 400.94658651 C440.62023025 405.11571758 440.61893104 409.28470229 440.63106918 413.45382309 C440.73507212 451.81990174 438.12225802 484.74395359 411.91059875 514.55841064 C410.24653625 516.14044189 410.24653625 516.14044189 408.24653625 516.14044189 C408.24653625 516.80044189 408.24653625 517.46044189 408.24653625 518.14044189 C406.17190427 519.68202975 404.11751783 521.08062865 401.93403625 522.45294189 C401.29828674 522.85593506 400.66253723 523.25892822 400.00752258 523.6741333 C383.23872909 534.10814263 366.77238114 537.45129296 347.22549438 537.40786743 C345.61872956 537.41160961 344.01196655 537.41621338 342.40520638 537.42159808 C338.01431415 537.43377334 333.62349842 537.4335741 329.23259318 537.43120933 C324.4873664 537.43079977 319.74216369 537.4418535 314.99694824 537.45132446 C305.70926331 537.46790528 296.42160377 537.47343268 287.13390527 537.47454922 C279.58090661 537.47550106 272.02791629 537.47961815 264.47492027 537.48595047 C243.0393202 537.50355478 221.60374011 537.51279059 200.16813276 537.51128952 C199.0136275 537.51120961 197.85912223 537.5111297 196.66963196 537.51104736 C195.51370968 537.5109656 194.3577874 537.51088384 193.16683718 537.5107996 C174.4383173 537.50998689 155.70987788 537.52912288 136.98138127 537.5573241 C117.73005879 537.5860828 98.4787755 537.59986275 79.227431 537.59813654 C68.42772248 537.59747368 57.62809831 537.60292039 46.82840919 537.62449265 C37.63280021 537.64274374 28.43731384 537.64701955 19.24169455 537.6334738 C14.55510841 537.62696402 9.86875723 537.62675465 5.18219376 537.6441803 C0.88188632 537.66000453 -3.4180017 537.65695301 -7.71829949 537.63961203 C-9.26400748 537.63656258 -10.80974753 537.64009589 -12.35541769 537.65133218 C-25.87558749 537.7430137 -38.75371007 535.55953137 -51.12846375 529.82794189 C-52.11423401 529.38454468 -52.11423401 529.38454468 -53.11991882 528.93218994 C-58.7986449 526.29252679 -63.82918286 523.00951973 -68.75346375 519.14044189 C-69.64033875 518.50106689 -70.52721375 517.86169189 -71.44096375 517.20294189 C-87.47029508 502.90651124 -99.05351946 481.58773954 -100.75346375 460.14044189 C-100.90645684 455.03743894 -100.90594035 449.93572058 -100.90736389 444.83097839 C-100.91138356 443.26479105 -100.91582261 441.69860473 -100.92064345 440.13241965 C-100.93255913 435.83949809 -100.93824575 431.54658775 -100.9428246 427.25365293 C-100.94879996 422.61867441 -100.96040509 417.98370916 -100.97111511 413.34873962 C-100.99559773 402.15869048 -101.01026162 390.96863697 -101.02317518 379.77856931 C-101.02689059 376.61435589 -101.03086355 373.45014291 -101.03492785 370.28592992 C-101.06017147 350.6090328 -101.08221037 330.93213492 -101.09465599 311.25522518 C-101.09758538 306.70093216 -101.10054708 302.14663916 -101.1035614 297.59234619 C-101.10430745 296.4604885 -101.1050535 295.32863081 -101.10582216 294.1624744 C-101.1184591 275.85233737 -101.15166208 257.54229781 -101.19336323 239.23220628 C-101.23588877 220.40470472 -101.25936338 201.5772529 -101.26457655 182.74970347 C-101.26797899 172.19058695 -101.27959548 161.63162265 -101.31267929 151.07255363 C-101.34082745 142.07432405 -101.35161493 133.07627792 -101.34048383 124.07800775 C-101.33533441 119.49582816 -101.33793846 114.91403184 -101.36294937 110.33190918 C-101.53221346 77.51367646 -99.25778227 49.48580675 -75.56596375 24.45294189 C-55.4573706 4.98315764 -26.9732237 -0.01857041 0 0 Z " fill="#161616" transform="translate(100.75346374511719,-0.14044189453125)"/>
<path d="M0 0 C1.5057404 -0.00258659 3.01148011 -0.00560056 4.51721889 -0.0090034 C8.64298226 -0.01704274 12.7687282 -0.01886126 16.89449847 -0.01960087 C21.34947524 -0.02145688 25.80444309 -0.02900715 30.25941467 -0.03573608 C39.99764246 -0.04930006 49.73586612 -0.05534165 59.47410178 -0.05974674 C65.56228265 -0.06251352 71.65046194 -0.06675176 77.73864174 -0.07125092 C94.61512877 -0.08344309 111.49161455 -0.09374118 128.36810589 -0.09712601 C129.44765545 -0.09734557 130.527205 -0.09756514 131.63946818 -0.09779136 C132.72152465 -0.09800964 133.80358111 -0.09822791 134.91842717 -0.09845281 C137.11088606 -0.09889626 139.30334495 -0.09934283 141.49580383 -0.09979248 C142.58332692 -0.10001391 143.67085001 -0.10023534 144.79132835 -0.10046348 C162.38823687 -0.10440616 179.98510385 -0.12184422 197.58199634 -0.145152 C215.67498121 -0.16892207 233.76794528 -0.18133049 251.860946 -0.18249393 C262.00859484 -0.18340773 272.15618961 -0.18908508 282.30382347 -0.20731354 C290.95037759 -0.22279132 299.59686093 -0.2277902 308.24342629 -0.21957543 C312.64704126 -0.21569537 317.05051405 -0.21646733 321.4541111 -0.23063278 C352.88187617 -0.32577677 387.01894434 -0.41613427 411.11763 23.00762939 C412.1714386 24.06337158 412.1714386 24.06337158 413.24653625 25.14044189 C414.1611261 25.94868408 414.1611261 25.94868408 415.0941925 26.77325439 C433.51013824 43.46925987 438.88424034 69.42087621 440.24653625 93.14044189 C440.58719823 103.61704798 440.53423922 114.1029506 440.52264464 124.58391798 C440.52015106 128.81653949 440.52922386 133.04914002 440.53668213 137.28175354 C440.54935925 145.54967017 440.55123158 153.81755421 440.54888187 162.08547892 C440.54709054 168.81441873 440.54886569 175.54334873 440.55310631 182.27228737 C440.5537015 183.23416014 440.55429669 184.19603292 440.55490991 185.18705336 C440.55612181 187.14183666 440.55733594 189.09661996 440.55855229 191.05140326 C440.56940108 209.33820559 440.56727808 227.62498943 440.56116744 245.91179279 C440.55600164 262.59096595 440.56724961 279.27008065 440.58626566 295.94924226 C440.60570214 313.13067371 440.61388985 330.31207758 440.61014241 347.49352008 C440.60823903 357.11739548 440.610633 366.74122116 440.62485695 376.36508751 C440.63684616 384.55894686 440.63809209 392.7527259 440.62606678 400.94658651 C440.62023025 405.11571758 440.61893104 409.28470229 440.63106918 413.45382309 C440.73507212 451.81990174 438.12225802 484.74395359 411.91059875 514.55841064 C410.24653625 516.14044189 410.24653625 516.14044189 408.24653625 516.14044189 C408.24653625 516.80044189 408.24653625 517.46044189 408.24653625 518.14044189 C406.17190427 519.68202975 404.11751783 521.08062865 401.93403625 522.45294189 C401.29828674 522.85593506 400.66253723 523.25892822 400.00752258 523.6741333 C383.23872909 534.10814263 366.77238114 537.45129296 347.22549438 537.40786743 C345.61872956 537.41160961 344.01196655 537.41621338 342.40520638 537.42159808 C338.01431415 537.43377334 333.62349842 537.4335741 329.23259318 537.43120933 C324.4873664 537.43079977 319.74216369 537.4418535 314.99694824 537.45132446 C305.70926331 537.46790528 296.42160377 537.47343268 287.13390527 537.47454922 C279.58090661 537.47550106 272.02791629 537.47961815 264.47492027 537.48595047 C243.0393202 537.50355478 221.60374011 537.51279059 200.16813276 537.51128952 C199.0136275 537.51120961 197.85912223 537.5111297 196.66963196 537.51104736 C195.51370968 537.5109656 194.3577874 537.51088384 193.16683718 537.5107996 C174.4383173 537.50998689 155.70987788 537.52912288 136.98138127 537.5573241 C117.73005879 537.5860828 98.4787755 537.59986275 79.227431 537.59813654 C68.42772248 537.59747368 57.62809831 537.60292039 46.82840919 537.62449265 C37.63280021 537.64274374 28.43731384 537.64701955 19.24169455 537.6334738 C14.55510841 537.62696402 9.86875723 537.62675465 5.18219376 537.6441803 C0.88188632 537.66000453 -3.4180017 537.65695301 -7.71829949 537.63961203 C-9.26400748 537.63656258 -10.80974753 537.64009589 -12.35541769 537.65133218 C-25.87558749 537.7430137 -38.75371007 535.55953137 -51.12846375 529.82794189 C-52.11423401 529.38454468 -52.11423401 529.38454468 -53.11991882 528.93218994 C-58.7986449 526.29252679 -63.82918286 523.00951973 -68.75346375 519.14044189 C-69.64033875 518.50106689 -70.52721375 517.86169189 -71.44096375 517.20294189 C-87.47029508 502.90651124 -99.05351946 481.58773954 -100.75346375 460.14044189 C-100.90645684 455.03743894 -100.90594035 449.93572058 -100.90736389 444.83097839 C-100.91138356 443.26479105 -100.91582261 441.69860473 -100.92064345 440.13241965 C-100.93255913 435.83949809 -100.93824575 431.54658775 -100.9428246 427.25365293 C-100.94879996 422.61867441 -100.96040509 417.98370916 -100.97111511 413.34873962 C-100.99559773 402.15869048 -101.01026162 390.96863697 -101.02317518 379.77856931 C-101.02689059 376.61435589 -101.03086355 373.45014291 -101.03492785 370.28592992 C-101.06017147 350.6090328 -101.08221037 330.93213492 -101.09465599 311.25522518 C-101.09758538 306.70093216 -101.10054708 302.14663916 -101.1035614 297.59234619 C-101.10430745 296.4604885 -101.1050535 295.32863081 -101.10582216 294.1624744 C-101.1184591 275.85233737 -101.15166208 257.54229781 -101.19336323 239.23220628 C-101.23588877 220.40470472 -101.25936338 201.5772529 -101.26457655 182.74970347 C-101.26797899 172.19058695 -101.27959548 161.63162265 -101.31267929 151.07255363 C-101.34082745 142.07432405 -101.35161493 133.07627792 -101.34048383 124.07800775 C-101.33533441 119.49582816 -101.33793846 114.91403184 -101.36294937 110.33190918 C-101.53221346 77.51367646 -99.25778227 49.48580675 -75.56596375 24.45294189 C-55.4573706 4.98315764 -26.9732237 -0.01857041 0 0 Z M-54.75346375 57.14044189 C-64.3367458 69.98420149 -65.21139541 84.380757 -65.1411438 99.88322449 C-65.14532806 101.41094732 -65.1508115 102.93866705 -65.15746361 104.46638113 C-65.17179366 108.62024668 -65.16771294 112.77391172 -65.1602968 116.92778766 C-65.15553635 121.42482303 -65.16810016 125.92181679 -65.17831421 130.4188385 C-65.19545093 139.21135301 -65.19635298 148.00379589 -65.19110131 156.79632276 C-65.18704915 163.94686476 -65.18851554 171.0973857 -65.19384956 178.24792671 C-65.19459799 179.26815846 -65.19534641 180.2883902 -65.19611751 181.33953806 C-65.19764909 183.41255335 -65.19918743 185.48556864 -65.20073248 187.55858392 C-65.21443871 206.96869404 -65.20903281 226.37876378 -65.19754726 245.78887296 C-65.18761465 263.52129904 -65.20055941 281.25362077 -65.22448146 298.98603075 C-65.2489002 317.22499388 -65.25847364 335.46390846 -65.25182873 353.70288759 C-65.24834296 363.93020543 -65.25052617 374.15744304 -65.26807976 384.38474846 C-65.28283638 393.08985894 -65.28339195 401.79483267 -65.26600885 410.49994057 C-65.25752534 414.93542125 -65.25528409 419.370658 -65.2706604 423.80612564 C-65.28459682 427.87683679 -65.27963091 431.94709709 -65.26042116 436.01778276 C-65.2566881 437.47992307 -65.25950414 438.94210029 -65.27003282 440.40420746 C-65.38329858 457.35652398 -62.0036328 474.59860215 -49.75346375 487.14044189 C-34.16973577 500.45869399 -18.38382848 501.3008891 1.41423035 501.26742554 C2.91603703 501.26858001 4.41784343 501.27016972 5.91964924 501.27215278 C10.01568908 501.27630134 14.11170542 501.27427576 18.20774531 501.27116656 C22.637293 501.26889432 27.06683677 501.27240116 31.49638367 501.27514648 C40.16228807 501.27958389 48.82818378 501.27863667 57.49408852 501.27573384 C64.54078451 501.27347155 71.58747809 501.27317087 78.63417435 501.27425766 C79.63873784 501.27441089 80.64330133 501.27456413 81.67830614 501.274722 C83.71935549 501.27504174 85.76040485 501.27536596 87.8014542 501.27569459 C106.92343518 501.27854352 126.04541136 501.27527172 145.16739155 501.26989423 C161.55559193 501.26542809 177.94378522 501.26620169 194.33198547 501.27081299 C213.38444006 501.27617147 232.43689044 501.27826745 251.48934567 501.27520072 C253.52331932 501.27488219 255.55729298 501.27456782 257.59126663 501.27425766 C258.59189295 501.27410338 259.59251926 501.27394911 260.62346759 501.27379016 C267.65624032 501.27292873 274.68901037 501.27437986 281.72178268 501.27673721 C290.30035163 501.27954962 298.87891144 501.27876667 307.45747934 501.27345647 C311.82982757 501.27083866 316.20216058 501.26978164 320.57450867 501.27310562 C324.58525632 501.27610844 328.59597482 501.27441011 332.60671987 501.26912807 C334.04939989 501.26802075 335.49208242 501.26855711 336.93476079 501.27100386 C355.04436055 501.83047575 355.04436055 501.83047575 372.12153625 496.95294189 C372.7473761 496.63760498 373.37321594 496.32226807 374.01802063 495.99737549 C386.9309561 489.32255687 394.91170322 479.69217883 400.24653625 466.14044189 C402.9347194 455.58965996 403.68293086 445.32323082 403.62748718 434.45376587 C403.6309545 432.94437913 403.63572619 431.43499493 403.64166892 429.92561591 C403.65406104 425.82714893 403.64806311 421.72889457 403.63871026 417.63042736 C403.63187126 413.19139434 403.64242475 408.75239574 403.65065002 404.31336975 C403.66393755 395.63729647 403.66113213 386.96130138 403.6524121 378.28522514 C403.64561713 371.23051455 403.64472665 364.17582575 403.64798355 357.12111282 C403.64844325 356.11431593 403.64890295 355.10751904 403.64937658 354.07021315 C403.65033582 352.02449292 403.65130846 349.97877271 403.65229435 347.9330525 C403.66083343 328.78480983 403.65103698 309.63661036 403.63489325 290.48837478 C403.62148734 274.07973232 403.62382331 257.67115353 403.63764954 241.26251221 C403.65372453 222.17632552 403.66001388 203.09017661 403.65081275 184.00398409 C403.64985716 181.96670255 403.64891405 179.92942099 403.64798355 177.89213943 C403.64728931 176.38882372 403.64728931 176.38882372 403.64658105 174.855138 C403.64399722 167.81279284 403.64834893 160.77047177 403.65542221 153.72813034 C403.66385859 145.14048178 403.66151209 136.55291543 403.64557998 127.96527623 C403.63772659 123.58880879 403.63455536 119.21247814 403.64452744 114.83601189 C403.65353578 110.82163835 403.64844167 106.80752706 403.63259478 102.79317696 C403.6292728 101.34927293 403.63088202 99.90534626 403.63822214 98.46145706 C403.72403249 80.16280058 400.16403608 64.60183645 387.24653625 51.14044189 C373.29279064 39.22644647 358.47903581 36.83258173 340.73643494 36.87301636 C339.17305513 36.86927492 337.6096772 36.86467144 336.0463022 36.85928571 C331.77084492 36.84710164 327.49546616 36.84731073 323.2199955 36.84967446 C318.60093619 36.85008379 313.98190166 36.83903262 309.362854 36.82955933 C300.32168787 36.81297449 291.28054782 36.80745095 282.23936774 36.80633457 C274.88892323 36.80538307 267.5384873 36.80126772 260.1880455 36.79493332 C239.33498732 36.77732919 218.4819497 36.76809336 197.62888403 36.76959427 C195.94398712 36.76971414 195.94398712 36.76971414 194.22505188 36.76983643 C192.53809149 36.76995907 192.53809149 36.76995907 190.8170511 36.77008419 C172.58692027 36.77089726 154.35687203 36.75175212 136.12676509 36.72355969 C117.39529912 36.69482107 98.66387342 36.68101988 79.93238485 36.68274724 C69.42118742 36.68341072 58.91007662 36.67793681 48.39889908 36.65639114 C39.45091757 36.63816668 30.50306199 36.63384258 21.55506994 36.64740999 C16.99252529 36.6539327 12.43022214 36.65408194 7.86770058 36.63670349 C3.68536832 36.62093733 -0.49653165 36.6238723 -4.67885359 36.64127176 C-6.18616258 36.64433382 -7.69350413 36.64073933 -9.20077471 36.6295516 C-27.98316253 36.4994494 -42.52487755 42.67541963 -54.75346375 57.14044189 Z " fill="#2386CC" transform="translate(100.75346374511719,-0.14044189453125)"/>
<path d="M0 0 C1.69912285 -0.00898019 3.39824496 -0.01810226 5.09736633 -0.02735901 C8.64346226 -0.04377441 12.18946454 -0.05153659 15.7355957 -0.05444336 C20.27182182 -0.05984776 24.80716623 -0.09764354 29.34314251 -0.14318752 C32.84594437 -0.17295585 36.34853261 -0.18016671 39.85144997 -0.18116951 C41.52397554 -0.18536515 43.19650213 -0.19777315 44.86890221 -0.21868706 C47.20712751 -0.24562484 49.54328922 -0.24077313 51.8815918 -0.22827148 C52.5658876 -0.24310577 53.25018341 -0.25794006 53.95521545 -0.27322388 C59.47532399 -0.18942085 61.73733664 1.61948544 65.48828125 5.37109375 C67.04696183 8.48845492 67.31253547 11.03426914 66.48828125 14.37109375 C60.83140508 23.31186973 52.43404975 30.62673582 44.92578125 37.99609375 C43.12356922 39.77040025 41.32298387 41.54628528 39.52540588 43.32528687 C38.41740018 44.42133036 37.30674132 45.51470205 36.19273376 46.60464478 C33.4009891 49.36093186 30.75251366 52.18384894 28.19287109 55.15771484 C23.97874661 60.02701727 19.45516241 64.5662567 14.90625 69.12109375 C14.01086014 70.01981201 13.11547028 70.91853027 12.19294739 71.84448242 C10.3142536 73.72820946 8.43448544 75.61078965 6.55297852 77.49169922 C4.13913177 79.90544328 1.73230096 82.32605967 -0.67293262 84.74838257 C-2.97540018 87.06458596 -5.28499962 89.37365551 -7.59375 91.68359375 C-8.458293 92.55532227 -9.322836 93.42705078 -10.21357727 94.32519531 C-11.0116832 95.12022461 -11.80978912 95.91525391 -12.63208008 96.734375 C-13.33488602 97.43860596 -14.03769196 98.14283691 -14.76179504 98.8684082 C-16.51171875 100.37109375 -16.51171875 100.37109375 -18.51171875 100.37109375 C-18.85203125 101.20640625 -18.85203125 101.20640625 -19.19921875 102.05859375 C-20.87068641 105.00356059 -23.06448227 107.05265919 -25.51171875 109.37109375 C-24.85171875 111.35109375 -24.19171875 113.33109375 -23.51171875 115.37109375 C-22.69719238 115.3553833 -21.88266602 115.33967285 -21.04345703 115.32348633 C7.74329258 114.8422859 31.73557741 115.95289002 53.91015625 136.671875 C67.70942723 151.11929355 72.09164643 170.97703649 71.73828125 190.37109375 C71.71858276 192.26384033 71.71858276 192.26384033 71.69848633 194.19482422 C71.65012153 197.9210367 71.57502817 201.64559601 71.48828125 205.37109375 C71.46749512 206.37301758 71.44670898 207.37494141 71.42529297 208.40722656 C71.16040645 219.59524832 70.30803438 230.73285688 69.23828125 241.87109375 C69.14119873 243.02367676 69.04411621 244.17625977 68.9440918 245.36376953 C68.24952666 251.9569988 67.47284833 255.85092733 62.48828125 260.37109375 C58.80636677 262.21205099 55.48281382 262.21658717 51.48828125 261.37109375 C49.25634766 259.78515625 49.25634766 259.78515625 46.96484375 257.62109375 C46.09504883 256.80334473 45.22525391 255.9855957 44.32910156 255.14306641 C39.12152114 250.06169238 33.97580794 244.92298678 28.86328125 239.74609375 C26.70749373 237.56334283 24.54937748 235.38297565 22.38671875 233.20703125 C21.87002625 232.68711609 21.35333374 232.16720093 20.82098389 231.63153076 C18.02136239 228.83551311 15.1670507 226.159504 12.15234375 223.59765625 C9.64974219 221.46438559 7.46111621 219.28318845 5.33203125 216.77734375 C2.110129 212.98558124 -1.32975707 209.47059104 -4.85546875 205.96484375 C-5.43232422 205.39121094 -6.00917969 204.81757813 -6.60351562 204.2265625 C-8.40439436 202.43952147 -10.20761456 200.65487818 -12.01171875 198.87109375 C-20.6133406 190.3663526 -29.0505253 181.92142136 -36.51171875 172.37109375 C-40.34917057 172.90407317 -42.63902071 173.75256446 -45.51171875 176.37109375 C-46.35309902 178.41020618 -46.35309902 178.41020618 -46.63671875 180.74609375 C-46.78753906 181.64070312 -46.93835938 182.5353125 -47.09375 183.45703125 C-47.3721897 185.39830245 -47.64044115 187.34106252 -47.8984375 189.28515625 C-50.90050669 211.04327237 -57.89653023 230.36013033 -74.51171875 245.37109375 C-78.03368535 248.01857478 -81.64174256 250.27092374 -85.51171875 252.37109375 C-86.59453125 252.96664062 -86.59453125 252.96664062 -87.69921875 253.57421875 C-102.55305921 261.34927587 -118.17574619 262.84731055 -134.6484375 262.8046875 C-136.22785157 262.8092646 -137.80726366 262.81457463 -139.38667297 262.8205719 C-142.65980248 262.82940818 -145.93268661 262.82718207 -149.20581055 262.81713867 C-153.39323771 262.80553801 -157.57983534 262.82607549 -161.76715374 262.85505581 C-165.01257137 262.87339445 -168.25778797 262.87313217 -171.5032444 262.86741829 C-173.04817703 262.86726544 -174.59312358 262.87327976 -176.13800621 262.88570976 C-178.28874982 262.90061083 -180.4379281 262.88995969 -182.58862305 262.87280273 C-184.41818794 262.87255348 -184.41818794 262.87255348 -186.28471375 262.87229919 C-190.12154011 262.27637875 -191.75461934 261.04672838 -194.51171875 258.37109375 C-196.81599327 255.07927301 -197.19486716 252.31817344 -196.51171875 248.37109375 C-191.85270925 241.84338486 -185.59303538 236.33039059 -179.91276932 230.69697952 C-178.33005336 229.12719995 -176.75063459 227.55416593 -175.17196655 225.98031616 C-171.82971546 222.64939097 -168.48349928 219.32246708 -165.13671875 215.99609375 C-161.23491013 212.11791392 -157.33475839 208.23809648 -153.43876266 204.35407639 C-151.88248034 202.80427538 -150.32322063 201.25751289 -148.76382446 199.71084595 C-147.81587317 198.76652483 -146.86806068 197.82206436 -145.92041016 196.87744141 C-144.67633896 195.64122543 -144.67633896 195.64122543 -143.40713501 194.3800354 C-141.46183075 192.51175222 -141.46183075 192.51175222 -140.51171875 190.37109375 C-139.85171875 190.37109375 -139.19171875 190.37109375 -138.51171875 190.37109375 C-138.10462929 189.47553772 -138.10462929 189.47553772 -137.6893158 188.56188965 C-136.53005782 186.40521167 -135.40424685 185.02666387 -133.67016602 183.31835938 C-133.09939835 182.75097046 -132.52863068 182.18358154 -131.94056702 181.59899902 C-131.32596115 180.99785278 -130.71135529 180.39670654 -130.078125 179.77734375 C-129.44438461 179.14880493 -128.81064423 178.52026611 -128.15769958 177.87268066 C-126.13456968 175.86733669 -124.10488207 173.86880659 -122.07421875 171.87109375 C-120.04799297 169.87253878 -118.02326129 167.8725274 -116.00144958 165.86950684 C-114.74434239 164.62459701 -113.48457113 163.38237007 -112.22181702 162.14318848 C-107.97535054 158.07575984 -107.97535054 158.07575984 -104.51171875 153.37109375 C-105.01171875 150.20442708 -105.01171875 150.20442708 -106.51171875 147.37109375 C-109.80403728 145.17621473 -111.07641343 145.06867864 -114.9296875 144.87890625 C-116.0117749 144.81590332 -117.0938623 144.75290039 -118.20874023 144.68798828 C-119.36059814 144.62466309 -120.51245605 144.56133789 -121.69921875 144.49609375 C-132.10110439 143.80962781 -141.57060878 142.53364569 -151.51171875 139.37109375 C-152.52105469 139.06171875 -153.53039062 138.75234375 -154.5703125 138.43359375 C-169.26424364 133.54241001 -180.39745625 124.49835613 -188.51171875 111.37109375 C-188.90101563 110.76007813 -189.2903125 110.1490625 -189.69140625 109.51953125 C-197.20685052 96.2946797 -197.77178434 79.38460482 -197.82421875 64.62109375 C-197.82683716 63.91576508 -197.82945557 63.2104364 -197.83215332 62.48373413 C-197.83685557 50.47503676 -197.04183706 38.6203647 -195.76171875 26.68359375 C-195.68321686 25.90592651 -195.60471497 25.12825928 -195.52383423 24.32702637 C-195.29458732 22.10591521 -195.04075799 19.88916635 -194.77734375 17.671875 C-194.63071289 16.40512939 -194.48408203 15.13838379 -194.33300781 13.83325195 C-193.09309201 8.60636552 -190.97544034 5.34690815 -186.51171875 2.37109375 C-179.99353263 1.37679417 -179.99353263 1.37679417 -176.74707031 3.55517578 C-175.86486816 4.36510986 -175.86486816 4.36510986 -174.96484375 5.19140625 C-174.27173096 5.82715576 -173.57861816 6.46290527 -172.86450195 7.11791992 C-168.68084906 11.12445022 -164.55331717 15.18192589 -160.46606445 19.28637695 C-158.95179295 20.80601043 -157.43224445 22.32021892 -155.91210938 23.83398438 C-147.83670969 31.90443256 -147.83670969 31.90443256 -144.140625 36.25 C-138.81198921 42.47486264 -132.83418859 48.11420281 -127.01171875 53.87109375 C-113.18734311 67.53976444 -113.18734311 67.53976444 -108.11328125 73.50683594 C-104.94669036 77.19282496 -101.5900281 80.7066603 -98.26171875 84.24609375 C-97.20210937 85.38304687 -97.20210937 85.38304687 -96.12109375 86.54296875 C-95.44046875 87.26742187 -94.75984375 87.991875 -94.05859375 88.73828125 C-93.44854492 89.38909668 -92.83849609 90.03991211 -92.20996094 90.71044922 C-90.41145763 92.57163836 -90.41145763 92.57163836 -87.51171875 94.37109375 C-85.11782952 94.09306537 -85.11782952 94.09306537 -82.51171875 93.37109375 C-80.51327165 93.02857322 -78.51340851 92.69412506 -76.51171875 92.37109375 C-76.5262207 91.58202637 -76.54072266 90.79295898 -76.55566406 89.97998047 C-76.63757579 82.06145652 -76.19929531 74.35649458 -75.26171875 66.49609375 C-75.05929565 64.79827759 -75.05929565 64.79827759 -74.8527832 63.06616211 C-73.21881254 50.13603844 -70.71181742 38.45889702 -63.51171875 27.37109375 C-63.01027344 26.5925 -62.50882813 25.81390625 -61.9921875 25.01171875 C-53.4566365 12.96641564 -40.51873448 5.94651712 -26.51171875 2.37109375 C-25.3304541 2.03408447 -24.14918945 1.6970752 -22.93212891 1.34985352 C-15.41872014 -0.2985365 -7.65479979 0.02098236 0 0 Z " fill="#2486CC" transform="translate(332.51171875,128.62890625)"/>
<path d="M0 0 C6.10631385 4.81291947 11.09403193 10.90118795 12.24975586 18.77099609 C13.00465067 29.35237274 12.99895813 39.00847936 5.91796875 47.51171875 C-0.08212013 54.3066912 -6.92567487 58.00802633 -15.9609375 58.890625 C-26.12222722 59.34032426 -33.35929835 57.71372667 -41.33203125 51.26171875 C-47.75355818 45.28790784 -51.62670475 38.36214421 -52.453125 29.55859375 C-52.76428625 18.66165118 -51.42600207 11.00125212 -43.83203125 2.69921875 C-31.09325613 -9.09181381 -14.25724074 -9.4763696 0 0 Z " fill="#161616" transform="translate(289.08203125,236.48828125)"/>
<path d="M0 0 C0.66 0 1.32 0 2 0 C2.12678098 7.74111444 2.21434412 15.48196116 2.2746582 23.22387695 C2.29980157 25.85744227 2.33392084 28.49093782 2.37719727 31.12426758 C2.4378521 34.90984309 2.4662127 38.69449598 2.48828125 42.48046875 C2.51408768 43.65772018 2.5398941 44.83497162 2.56648254 46.04789734 C2.56960677 55.15417673 2.56960677 55.15417673 -0.39941406 58.2409668 C-4.45427554 60.98367023 -6.18303473 60.76459766 -11 60 C-15.11573907 56.15821453 -15.71889578 52.42230623 -15.9609375 47.0234375 C-16.02131699 45.87459579 -16.02131699 45.87459579 -16.08291626 44.70254517 C-16.15864954 43.08422179 -16.22356425 41.46536028 -16.27832031 39.84619141 C-16.37409023 37.39825438 -16.54495734 34.96299683 -16.71875 32.51953125 C-17.32292345 20.34518746 -17.32292345 20.34518746 -13.86621094 15.56420898 C-11.37313007 12.83891153 -8.76764281 10.43974723 -6 8 C-4.28627463 5.83735173 -2.72105049 3.63315172 -1.15625 1.36328125 C-0.7746875 0.91339844 -0.393125 0.46351563 0 0 Z " fill="#2583C7" transform="translate(287,363)"/>
<path d="M0 0 C0.33 0 0.66 0 1 0 C1.79414611 4.19391446 2.12521276 8.1503435 2.12584114 12.41628075 C2.12844889 13.69473283 2.13105664 14.97318492 2.13374341 16.29037797 C2.13158153 17.701754 2.12932489 19.11312988 2.12698364 20.52450562 C2.12813613 22.02953492 2.12972451 23.53456395 2.13171089 25.03959239 C2.13588678 29.17217346 2.13382134 33.30473145 2.13072467 37.4373126 C2.12846369 41.89548111 2.1319537 46.35364563 2.13470459 50.81181335 C2.13915399 59.54470655 2.13818943 68.27759115 2.13529195 77.01048468 C2.13303438 84.10838643 2.13272693 91.20628577 2.13381577 98.30418777 C2.133969 99.3140719 2.13412223 100.32395603 2.13428011 101.36444271 C2.13459983 103.41597266 2.13492404 105.46750261 2.1352527 107.51903255 C2.13810513 126.76241292 2.13482432 146.00578853 2.12945233 165.24916811 C2.12498587 181.75986446 2.12575939 198.27055378 2.13037109 214.78125 C2.13572336 233.95226298 2.13782904 253.12327179 2.13475883 272.29428542 C2.13444028 274.33891718 2.13412591 276.38354893 2.13381577 278.42818069 C2.13366149 279.43418532 2.13350721 280.44018994 2.13334826 281.47667956 C2.13248497 288.56480048 2.13394199 295.65291876 2.13629532 302.74103928 C2.1391008 311.38104355 2.13833928 320.02103873 2.13301457 328.66104196 C2.13038749 333.06905984 2.12935571 337.47706257 2.13266373 341.88508034 C2.13564716 345.92165932 2.13399973 349.95820915 2.12868617 353.9947855 C2.12757072 355.45368875 2.12813383 356.91259447 2.13056196 358.37149613 C2.14125801 365.33300608 2.10090248 372.11723756 1 379 C0.67 379 0.34 379 0 379 C-0.19401633 377.18818595 -0.38004375 375.37551468 -0.5625 373.5625 C-0.66691406 372.55316406 -0.77132813 371.54382813 -0.87890625 370.50390625 C-0.91886719 369.67761719 -0.95882813 368.85132813 -1 368 C-0.67 367.67 -0.34 367.34 0 367 C0.09773416 365.05047636 0.1237129 363.09734897 0.12304783 361.14537716 C0.12503888 359.86497993 0.12702993 358.58458271 0.12908131 357.26538557 C0.12622771 355.82592561 0.1232821 354.38646583 0.12025452 352.94700623 C0.12069009 351.43234125 0.12156473 349.91767635 0.12284368 348.40301186 C0.12509147 344.22088409 0.12106351 340.03878168 0.11606562 335.85665715 C0.11176535 331.35424683 0.11320724 326.85183806 0.1139679 322.34942627 C0.1144934 314.54206946 0.11134384 306.73472097 0.10573006 298.92736626 C0.09761863 287.63910579 0.09500021 276.35084938 0.09374207 265.06258631 C0.09155098 246.75013664 0.08488937 228.4376914 0.07543945 210.12524414 C0.06626679 192.33162458 0.05918525 174.53800622 0.05493164 156.74438477 C0.05466892 155.64842011 0.05440619 154.55245546 0.05413551 153.42327975 C0.05283051 147.92539625 0.0515668 142.42751273 0.05032361 136.92962921 C0.03994924 91.28641639 0.02232939 45.64320843 0 0 Z " fill="#122738" transform="translate(502,79)"/>
<path d="M0 0 C0.33 0 0.66 0 1 0 C1 1.98 1 3.96 1 6 C1.66 6 2.32 6 3 6 C3 12.93 3 19.86 3 27 C2.67 27 2.34 27 2 27 C1.67 32.94 1.34 38.88 1 45 C-1.18101633 40.63796733 -1.24553709 38.47838154 -1.23046875 33.671875 C-1.23001053 32.9640387 -1.22955231 32.25620239 -1.2290802 31.5269165 C-1.22606489 30.03078534 -1.21820013 28.53465712 -1.20581055 27.03857422 C-1.18767357 24.77169399 -1.18530031 22.50522616 -1.18554688 20.23828125 C-1.16250475 13.40335759 -0.94465635 6.77137213 0 0 Z " fill="#2781C0" transform="translate(136,167)"/>
<path d="M0 0 C7.04440079 -0.21133202 13.24112575 -0.07965362 20 2 C20 2.33 20 2.66 20 3 C15.545 3.495 15.545 3.495 11 4 C11 3.67 11 3.34 11 3 C6.71 3 2.42 3 -2 3 C-1.34 2.67 -0.68 2.34 0 2 C0 1.34 0 0.68 0 0 Z " fill="#151E26" transform="translate(262,230)"/>
<path d="M0 0 C-1.65863505 4.32504836 -4.871041 7.09418825 -8.125 10.25 C-8.68832031 10.80429688 -9.25164062 11.35859375 -9.83203125 11.9296875 C-11.21686028 13.29104485 -12.60783204 14.64614859 -14 16 C-14.33 15.01 -14.66 14.02 -15 13 C-12.88094537 10.82722286 -10.75527122 8.66173092 -8.625 6.5 C-8.02171875 5.87996094 -7.4184375 5.25992188 -6.796875 4.62109375 C-6.21679688 4.03457031 -5.63671875 3.44804687 -5.0390625 2.84375 C-4.50490723 2.29912109 -3.97075195 1.75449219 -3.42041016 1.19335938 C-2 0 -2 0 0 0 Z " fill="#257BB7" transform="translate(345,198)"/>
<path d="M0 0 C3.90285767 1.58667578 6.33520982 4.13350481 9.25 7.125 C10.14203125 8.03507812 11.0340625 8.94515625 11.953125 9.8828125 C12.62859375 10.58148438 13.3040625 11.28015625 14 12 C13.34 12.66 12.68 13.32 12 14 C9.99387601 12.04761147 7.99507567 10.08862178 6 8.125 C5.42765625 7.56941406 4.8553125 7.01382812 4.265625 6.44140625 C2.80549218 4.99865596 1.39850702 3.5025626 0 2 C0 1.34 0 0.68 0 0 Z " fill="#2780BE" transform="translate(369,374)"/>
<path d="M0 0 C3.90285767 1.58667578 6.33520982 4.13350481 9.25 7.125 C10.14203125 8.03507813 11.0340625 8.94515625 11.953125 9.8828125 C12.62859375 10.58148438 13.3040625 11.28015625 14 12 C13.34 12.66 12.68 13.32 12 14 C9.99387601 12.04761147 7.99507567 10.08862178 6 8.125 C5.42765625 7.56941406 4.8553125 7.01382813 4.265625 6.44140625 C2.80549218 4.99865596 1.39850702 3.5025626 0 2 C0 1.34 0 0.68 0 0 Z " fill="#151B21" transform="translate(157,132)"/>
<path d="M0 0 C0.33 0.99 0.66 1.98 1 3 C-2.96 6.96 -6.92 10.92 -11 15 C-11.33 14.01 -11.66 13.02 -12 12 C-11.01 11.67 -10.02 11.34 -9 11 C-8.30640354 9.68047502 -7.64334704 8.34474043 -7 7 C-5.2734375 5.078125 -5.2734375 5.078125 -3.375 3.25 C-2.74335938 2.63640625 -2.11171875 2.0228125 -1.4609375 1.390625 C-0.73777344 0.70226562 -0.73777344 0.70226562 0 0 Z " fill="#162029" transform="translate(185,324)"/>
<path d="M0 0 C0.66 0 1.32 0 2 0 C2.61875 0.639375 3.2375 1.27875 3.875 1.9375 C7.67362956 5.62440517 12.11814717 5.22987991 17.25 5.5625 C18.51328125 5.64628906 19.7765625 5.73007812 21.078125 5.81640625 C22.04234375 5.87699219 23.0065625 5.93757813 24 6 C24 6.33 24 6.66 24 7 C21.10315842 7.10829314 18.21038981 7.18743954 15.3125 7.25 C14.08756836 7.30027344 14.08756836 7.30027344 12.83789062 7.3515625 C8.73925176 7.41793722 6.56291539 7.34080776 2.98046875 5.171875 C1 3 1 3 0 0 Z " fill="#2B8ED4" transform="translate(137,384)"/>
<path d="M0 0 C1.26328125 0.01804688 2.5265625 0.03609375 3.828125 0.0546875 C4.79234375 0.07789063 5.7565625 0.10109375 6.75 0.125 C6.75 0.455 6.75 0.785 6.75 1.125 C9.72 1.62 9.72 1.62 12.75 2.125 C12.75 2.455 12.75 2.785 12.75 3.125 C9.45 3.125 6.15 3.125 2.75 3.125 C2.75 2.465 2.75 1.805 2.75 1.125 C1.925 1.29 1.1 1.455 0.25 1.625 C-3.66272317 2.18396045 -7.30183173 2.19307187 -11.25 2.125 C-7.54583874 -0.25090142 -4.32015427 -0.08000286 0 0 Z " fill="#172937" transform="translate(85.25,36.875)"/>
<path d="M0 0 C7.59 0.33 15.18 0.66 23 1 C23 1.33 23 1.66 23 2 C14.42 2.33 5.84 2.66 -3 3 C-2.01 2.67 -1.02 2.34 0 2 C0 1.34 0 0.68 0 0 Z " fill="#18232E" transform="translate(200,272)"/>
<path d="M0 0 C-1.47721422 3.45201639 -3.43794001 5.64961936 -6.125 8.25 C-6.84945313 8.95640625 -7.57390625 9.6628125 -8.3203125 10.390625 C-8.87460937 10.92171875 -9.42890625 11.4528125 -10 12 C-10.33 11.01 -10.66 10.02 -11 9 C-9.54782324 7.49403892 -8.08807139 5.99537896 -6.625 4.5 C-5.40683594 3.24703125 -5.40683594 3.24703125 -4.1640625 1.96875 C-2 0 -2 0 0 0 Z " fill="#267BB8" transform="translate(329,214)"/>
<path d="M0 0 C3.21524305 1.40844718 5.32183868 3.10344786 7.75 5.625 C8.67039063 6.57246094 8.67039063 6.57246094 9.609375 7.5390625 C10.29773438 8.26222656 10.29773438 8.26222656 11 9 C10.34 9.66 9.68 10.32 9 11 C7.49403892 9.54782324 5.99537896 8.08807139 4.5 6.625 C3.6646875 5.81289062 2.829375 5.00078125 1.96875 4.1640625 C0 2 0 2 0 0 Z " fill="#151D24" transform="translate(233,211)"/>
<path d="M0 0 C0.99 0.33 1.98 0.66 3 1 C-0.3 4.3 -3.6 7.6 -7 11 C-7.33 10.01 -7.66 9.02 -8 8 C-5.36 5.36 -2.72 2.72 0 0 Z " fill="#2577B2" transform="translate(357,184)"/>
<path d="M0 0 C0.33 0 0.66 0 1 0 C1.13277344 1.10859375 1.26554688 2.2171875 1.40234375 3.359375 C1.58059757 4.8229327 1.75899028 6.28647349 1.9375 7.75 C2.06801758 8.84441406 2.06801758 8.84441406 2.20117188 9.9609375 C2.62027409 13.37584442 3.117274 16.67603543 4 20 C3.01 19.67 2.02 19.34 1 19 C0.15976812 14.64667264 -0.10770995 10.55557481 -0.0625 6.125 C-0.05347656 4.97257812 -0.04445312 3.82015625 -0.03515625 2.6328125 C-0.02355469 1.76398438 -0.01195312 0.89515625 0 0 Z " fill="#22618F" transform="translate(236,258)"/>
<path d="M0 0 C0.33 0 0.66 0 1 0 C0.67 5.61 0.34 11.22 0 17 C-0.33 17 -0.66 17 -1 17 C-1.22185844 14.73044814 -1.42705515 12.45926245 -1.625 10.1875 C-1.74101562 8.92292969 -1.85703125 7.65835937 -1.9765625 6.35546875 C-2 3 -2 3 0 0 Z " fill="#266796" transform="translate(402,348)"/>
<path d="M0 0 C0.66 0.33 1.32 0.66 2 1 C1.67 3.64 1.34 6.28 1 9 C0.34 9 -0.32 9 -1 9 C-1 9.66 -1 10.32 -1 11 C-1.66 11 -2.32 11 -3 11 C-2.01 7.37 -1.02 3.74 0 0 Z " fill="#141A21" transform="translate(281,333)"/>
<path d="M0 0 C1.17539996 0.92652701 2.34010577 1.86663387 3.5 2.8125 C4.1496875 3.33457031 4.799375 3.85664063 5.46875 4.39453125 C7 6 7 6 7 9 C5.82460004 8.07347299 4.65989423 7.13336613 3.5 6.1875 C2.52546875 5.40439453 2.52546875 5.40439453 1.53125 4.60546875 C0 3 0 3 0 0 Z " fill="#162027" transform="translate(329,336)"/>
<path d="M0 0 C4.29 0 8.58 0 13 0 C13 0.66 13 1.32 13 2 C13.66 2.33 14.32 2.66 15 3 C14.01 2.855625 13.02 2.71125 12 2.5625 C8.00590535 1.99074821 4.00467063 1.49180166 0 1 C0 0.67 0 0.34 0 0 Z " fill="#182A38" transform="translate(339,244)"/>
<path d="M0 0 C-0.99 0.33 -1.98 0.66 -3 1 C-3 1.99 -3 2.98 -3 4 C-4.32 4 -5.64 4 -7 4 C-7 3.34 -7 2.68 -7 2 C-7.99 1.67 -8.98 1.34 -10 1 C-6.59437148 0.22157062 -3.49234244 -0.09978121 0 0 Z " fill="#1586DA" transform="translate(91,0)"/>
<path d="M0 0 C2.475 0.495 2.475 0.495 5 1 C5.33 1.99 5.66 2.98 6 4 C4.02 4 2.04 4 0 4 C0 2.68 0 1.36 0 0 Z " fill="#1789D9" transform="translate(454,533)"/>
<path d="M0 0 C3.36720387 1.39332574 4.9859524 2.9789286 7 6 C4 6 4 6 1.8125 4.125 C0 2 0 2 0 0 Z " fill="#277DB9" transform="translate(342,348)"/>
<path d="M0 0 C0 3.86695678 -1.41909971 6.5088452 -3 10 C-3.33 10 -3.66 10 -4 10 C-4.19990835 6.40164967 -3.96808719 4.06146896 -2 1 C-1.34 0.67 -0.68 0.34 0 0 Z " fill="#2878B3" transform="translate(277,344)"/>
<path d="M0 0 C3.36720387 1.39332574 4.9859524 2.9789286 7 6 C4 6 4 6 1.8125 4.125 C0 2 0 2 0 0 Z " fill="#141C21" transform="translate(187,163)"/>
<path d="M0 0 C1.65 0 3.3 0 5 0 C4.67 1.32 4.34 2.64 4 4 C2.68 3.67 1.36 3.34 0 3 C0 2.01 0 1.02 0 0 Z " fill="#1980D9" transform="translate(466,532)"/>
<path d="M0 0 C0.5625 1.9375 0.5625 1.9375 1 4 C0.67 4.33 0.34 4.66 0 5 C-0.23075082 6.34747084 -0.41153063 7.70377565 -0.5625 9.0625 C-0.706875 10.361875 -0.85125 11.66125 -1 13 C-1.33 13 -1.66 13 -2 13 C-2.05416188 11.39620659 -2.09286638 9.79188594 -2.125 8.1875 C-2.14820313 7.29417969 -2.17140625 6.40085937 -2.1953125 5.48046875 C-2 3 -2 3 0 0 Z " fill="#16212A" transform="translate(38,441)"/>
</svg>
